<svg width="31" height="30" viewBox="0 0 31 30" fill="none" xmlns="http://www.w3.org/2000/svg">
<path d="M27.375 15C27.375 17.3487 26.6785 19.6446 25.3737 21.5974C24.0689 23.5502 22.2142 25.0723 20.0444 25.9711C17.8745 26.8699 15.4868 27.105 13.1833 26.6468C10.8798 26.1886 8.76386 25.0576 7.10311 23.3969C5.44236 21.7361 4.31138 19.6202 3.85318 17.3167C3.39498 15.0132 3.63015 12.6255 4.52894 10.4556C5.42773 8.28576 6.94977 6.43114 8.90261 5.1263C10.8554 3.82146 13.1514 3.125 15.5 3.125C17.8113 3.12424 20.0725 3.79798 22.0065 5.0636C23.9404 6.32921 25.463 8.13169 26.3875 10.25M27.375 6.875L26.7813 10.8438L23 10" stroke="white" stroke-width="1.875" stroke-linecap="round" stroke-linejoin="round"/>
<path d="M13 13.75V11.875C13 11.212 13.2634 10.5761 13.7322 10.1072C14.2011 9.63839 14.837 9.375 15.5 9.375C16.163 9.375 16.7989 9.63839 17.2678 10.1072C17.7366 10.5761 18 11.212 18 11.875V13.75M14.5625 20.625H16.4375C17.9037 20.625 18.6375 20.625 19.1413 20.2375C19.2713 20.1377 19.3877 20.0213 19.4875 19.8913C19.875 19.3863 19.875 18.6537 19.875 17.1875C19.875 15.7213 19.875 14.9875 19.4875 14.4837C19.3877 14.3537 19.2713 14.2373 19.1413 14.1375C18.6363 13.75 17.9037 13.75 16.4375 13.75H14.5625C13.0963 13.75 12.3625 13.75 11.8587 14.1375C11.7287 14.2373 11.6123 14.3537 11.5125 14.4837C11.125 14.9887 11.125 15.7213 11.125 17.1875C11.125 18.6537 11.125 19.3875 11.5125 19.8913C11.6123 20.0213 11.7287 20.1377 11.8587 20.2375C12.3637 20.625 13.0963 20.625 14.5625 20.625Z" stroke="white" stroke-width="1.875" stroke-linecap="round" stroke-linejoin="round"/>
</svg>
