<svg width="30" height="30" viewBox="0 0 30 30" fill="none" xmlns="http://www.w3.org/2000/svg">
<path d="M24.1625 25.1875C26.7032 22.8425 28.1688 19.3975 28.1688 15.3057C28.1688 14.3525 28.0832 13.4369 27.925 12.5569H15.2688V17.7607H22.5C22.1832 19.4344 21.23 20.8513 19.8007 21.8044M24.1625 25.1875C21.9388 27.2407 18.8969 28.4375 15.2688 28.4375C10.0163 28.4375 5.4838 25.42 3.27255 21.035M24.1625 25.1875L19.8007 21.8044M19.8007 21.8044C18.6038 22.6107 17.0769 23.0994 15.2688 23.0994C11.775 23.0994 8.8063 20.7413 7.7438 17.5657M3.27255 8.97754C2.35692 10.7857 1.8313 12.8257 1.8313 15C1.8313 17.1744 2.3563 19.2144 3.27255 21.0225L6.7538 18.31L7.7438 17.5532C7.47505 16.7469 7.3163 15.8919 7.3163 15C7.3163 14.1082 7.47505 13.2532 7.7438 12.4469" stroke="white" stroke-width="0.625" stroke-linecap="round" stroke-linejoin="round"/>
<path d="M15.2687 6.9125C17.2475 6.9125 19.0062 7.59687 20.4118 8.91625L24.2593 5.06875C21.9262 2.89375 18.8968 1.5625 15.2687 1.5625C10.0156 1.5625 5.48371 4.58 3.27246 8.9775L7.74371 12.4469C8.80621 9.27063 11.775 6.9125 15.2687 6.9125Z" stroke="white" stroke-width="0.625" stroke-linecap="round" stroke-linejoin="round"/>
</svg>
