<svg width="31" height="30" viewBox="0 0 31 30" fill="none" xmlns="http://www.w3.org/2000/svg">
<path d="M22.9999 11.7858V8.57153C22.9999 6.58241 22.2098 4.67475 20.8032 3.26823C19.3967 1.86171 17.4891 1.07153 15.4999 1.07153C13.5108 1.07153 11.6032 1.86171 10.1966 3.26823C8.79011 4.67475 7.99993 6.58241 7.99993 8.57153V11.7858M24.0714 11.7858H6.9285C6.36018 11.7858 5.81514 12.0116 5.41327 12.4134C5.01141 12.8153 4.78564 13.3604 4.78564 13.9287V26.7858C4.78564 27.3541 5.01141 27.8992 5.41327 28.301C5.81514 28.7029 6.36018 28.9287 6.9285 28.9287H24.0714C24.6397 28.9287 25.1847 28.7029 25.5866 28.301C25.9885 27.8992 26.2142 27.3541 26.2142 26.7858V13.9287C26.2142 13.3604 25.9885 12.8153 25.5866 12.4134C25.1847 12.0116 24.6397 11.7858 24.0714 11.7858Z" stroke="white" stroke-width="1.07143" stroke-linecap="round" stroke-linejoin="round"/>
<path d="M15.4999 21.4287C15.7841 21.4287 16.0566 21.3159 16.2575 21.1149C16.4584 20.914 16.5713 20.6415 16.5713 20.3573C16.5713 20.0732 16.4584 19.8006 16.2575 19.5997C16.0566 19.3988 15.7841 19.2859 15.4999 19.2859C15.2157 19.2859 14.9432 19.3988 14.7423 19.5997C14.5413 19.8006 14.4285 20.0732 14.4285 20.3573C14.4285 20.6415 14.5413 20.914 14.7423 21.1149C14.9432 21.3159 15.2157 21.4287 15.4999 21.4287Z" stroke="white" stroke-width="1.07143" stroke-linecap="round" stroke-linejoin="round"/>
</svg>
