<svg width="31" height="30" viewBox="0 0 31 30" fill="none" xmlns="http://www.w3.org/2000/svg">
<path d="M15.5001 5.625C14.6713 5.625 13.8765 5.95424 13.2904 6.54029C12.7044 7.12634 12.3751 7.9212 12.3751 8.75C12.3751 9.5788 12.7044 10.3737 13.2904 10.9597C13.8765 11.5458 14.6713 11.875 15.5001 11.875C16.3289 11.875 17.1238 11.5458 17.7098 10.9597C18.2959 10.3737 18.6251 9.5788 18.6251 8.75C18.6251 7.9212 18.2959 7.12634 17.7098 6.54029C17.1238 5.95424 16.3289 5.625 15.5001 5.625ZM11.1251 8.75C11.1251 8.17547 11.2383 7.60656 11.4581 7.07576C11.678 6.54496 12.0003 6.06266 12.4065 5.65641C12.8128 5.25015 13.2951 4.92789 13.8259 4.70803C14.3567 4.48816 14.9256 4.375 15.5001 4.375C16.0747 4.375 16.6436 4.48816 17.1744 4.70803C17.7052 4.92789 18.1875 5.25015 18.5937 5.65641C19 6.06266 19.3222 6.54496 19.5421 7.07576C19.762 7.60656 19.8751 8.17547 19.8751 8.75C19.8751 9.91032 19.4142 11.0231 18.5937 11.8436C17.7732 12.6641 16.6604 13.125 15.5001 13.125C14.3398 13.125 13.227 12.6641 12.4065 11.8436C11.5861 11.0231 11.1251 9.91032 11.1251 8.75ZM12.2126 15.6825C11.921 15.7575 11.6322 15.8417 11.3464 15.935L10.1476 16.3287C9.65795 16.4882 9.21572 16.7671 8.86086 17.1403C8.50601 17.5135 8.24971 17.9692 8.11512 18.4662L7.61637 22.0662C7.50387 22.875 7.93262 23.5412 8.61137 23.7037C9.94512 24.0225 12.1751 24.375 15.4989 24.375C18.8239 24.375 21.0551 24.0225 22.3889 23.7037C23.0676 23.5412 23.4951 22.875 23.3839 22.0662L22.8839 18.4662C22.7493 17.9692 22.493 17.5135 22.1381 17.1403C21.7833 16.7671 21.341 16.4882 20.8514 16.3287L19.6526 15.935C19.3668 15.8408 19.0785 15.7567 18.7876 15.6825C18.5618 15.8597 18.3228 16.0193 18.0726 16.16C17.2894 16.6099 16.4033 16.8502 15.5001 16.8575C14.4251 16.8575 13.5376 16.5038 12.9276 16.16C12.677 16.0194 12.4388 15.8597 12.2126 15.6825ZM12.5676 14.3138L12.8101 14.5525L12.8164 14.5588L12.8464 14.5862C12.8755 14.6129 12.9218 14.6512 12.9851 14.7013C13.1101 14.8012 13.2989 14.9362 13.5401 15.0712C14.0239 15.3438 14.6989 15.6075 15.4989 15.6075C16.2989 15.6075 16.9739 15.345 17.4576 15.0712C17.7036 14.9323 17.9355 14.7699 18.1501 14.5862L18.1814 14.5575L18.1864 14.5537L18.4289 14.3138L18.7639 14.3912C19.1939 14.4896 19.6197 14.6083 20.0414 14.7475L21.2414 15.1412C21.9369 15.3671 22.5641 15.7652 23.0646 16.2984C23.565 16.8316 23.9225 17.4828 24.1039 18.1913L24.1126 18.225L24.6201 21.895C24.8039 23.22 24.0951 24.5825 22.6776 24.92C21.2401 25.2625 18.9114 25.625 15.4989 25.625C12.0864 25.625 9.75762 25.2625 8.32012 24.92C6.90262 24.5825 6.19387 23.22 6.37637 21.895L6.88512 18.225L6.89387 18.1913C7.0752 17.4828 7.43271 16.8316 7.93318 16.2984C8.43364 15.7652 9.06081 15.3671 9.75637 15.1412L10.9564 14.7475C11.378 14.6092 11.8039 14.4904 12.2339 14.3912L12.5676 14.3138Z" fill="white"/>
</svg>
