<svg width="31" height="30" viewBox="0 0 31 30" fill="none" xmlns="http://www.w3.org/2000/svg">
<path d="M5.56823 8.91431C5.12496 9.00921 4.72527 9.24742 4.43089 9.59215C4.13651 9.93687 3.96382 10.3689 3.9395 10.8216C3.91518 11.2743 4.04057 11.7223 4.29632 12.0966C4.55206 12.4709 4.92393 12.7506 5.35448 12.8924L16.1401 16.0412L27.0626 12.9212" stroke="white" stroke-width="0.625" stroke-linecap="round" stroke-linejoin="round"/>
<path d="M5.56823 12.9724C5.12496 13.0673 4.72527 13.3055 4.43089 13.6503C4.13651 13.995 3.96382 14.427 3.9395 14.8797C3.91518 15.3324 4.04057 15.7804 4.29632 16.1547C4.55206 16.529 4.92393 16.8087 5.35448 16.9505L16.1401 20.0993L27.0626 16.9793" stroke="white" stroke-width="0.625" stroke-linecap="round" stroke-linejoin="round"/>
<path d="M5.56806 17.0751C5.12504 17.1702 4.72564 17.4085 4.43149 17.7531C4.13734 18.0978 3.96479 18.5296 3.94047 18.9821C3.91616 19.4346 4.04143 19.8825 4.29695 20.2566C4.55247 20.6308 4.92404 20.9105 5.35431 21.0526L16.1399 24.2013L27.0624 21.0813V8.8957M27.0624 8.8957L16.1399 5.79883L5.55118 8.90695L16.1399 12.0157L27.0624 8.8957Z" stroke="white" stroke-width="0.625" stroke-linecap="round" stroke-linejoin="round"/>
</svg>
